<svg width="280" height="228" viewBox="0 0 280 228" fill="none" xmlns="http://www.w3.org/2000/svg">
<g clip-path="url(#clip0)">
<path d="M0 38.2788V221.938C0 225.286 3.33296 228 7.44451 228H272.556C276.668 228 280.001 225.286 280.001 221.938V38.2788L131.206 33.6913L0 38.2788Z" fill="#FAE8FF"/>
<path d="M280 38.1627H0V6.06196C0 2.71398 3.33296 0 7.44451 0H272.556C276.667 0 280 2.71398 280 6.06196V38.1627Z" fill="#701A75"/>
<path d="M263.099 38.2788V221.938C263.099 225.286 259.766 228 255.654 228H272.555C276.667 228 280 225.286 280 221.938V38.2788L271.549 33.6913L263.099 38.2788Z" fill="#E879F9"/>
<path d="M272.555 0H255.654C259.766 0 263.099 2.71398 263.099 6.06196V38.1632H280V6.06196C280 2.71398 276.667 0 272.555 0V0Z" fill="#A21CAF"/>
<path d="M207.67 228V172.452C207.67 170.602 209.512 169.103 211.783 169.103H280L207.67 228Z" fill="#701A75"/>
<path d="M263.099 182.865L280 169.103H263.099V182.865Z" fill="#A21CAF"/>
<path d="M65.9611 94.21C64.4211 94.21 63.0411 93.96 61.8211 93.46C60.6011 92.96 59.6211 92.22 58.8811 91.24C58.1611 90.26 57.7811 89.08 57.7411 87.7H63.2011C63.2811 88.48 63.5511 89.08 64.0111 89.5C64.4711 89.9 65.0711 90.1 65.8111 90.1C66.5711 90.1 67.1711 89.93 67.6111 89.59C68.0511 89.23 68.2711 88.74 68.2711 88.12C68.2711 87.6 68.0911 87.17 67.7311 86.83C67.3911 86.49 66.9611 86.21 66.4411 85.99C65.9411 85.77 65.2211 85.52 64.2811 85.24C62.9211 84.82 61.8111 84.4 60.9511 83.98C60.0911 83.56 59.3511 82.94 58.7311 82.12C58.1111 81.3 57.8011 80.23 57.8011 78.91C57.8011 76.95 58.5111 75.42 59.9311 74.32C61.3511 73.2 63.2011 72.64 65.4811 72.64C67.8011 72.64 69.6711 73.2 71.0911 74.32C72.5111 75.42 73.2711 76.96 73.3711 78.94H67.8211C67.7811 78.26 67.5311 77.73 67.0711 77.35C66.6111 76.95 66.0211 76.75 65.3011 76.75C64.6811 76.75 64.1811 76.92 63.8011 77.26C63.4211 77.58 63.2311 78.05 63.2311 78.67C63.2311 79.35 63.5511 79.88 64.1911 80.26C64.8311 80.64 65.8311 81.05 67.1911 81.49C68.5511 81.95 69.6511 82.39 70.4911 82.81C71.3511 83.23 72.0911 83.84 72.7111 84.64C73.3311 85.44 73.6411 86.47 73.6411 87.73C73.6411 88.93 73.3311 90.02 72.7111 91C72.1111 91.98 71.2311 92.76 70.0711 93.34C68.9111 93.92 67.5411 94.21 65.9611 94.21ZM85.5281 89.65V94H82.9181C81.0581 94 79.6081 93.55 78.5681 92.65C77.5281 91.73 77.0081 90.24 77.0081 88.18V81.52H74.9681V77.26H77.0081V73.18H82.1381V77.26H85.4981V81.52H82.1381V88.24C82.1381 88.74 82.2581 89.1 82.4981 89.32C82.7381 89.54 83.1381 89.65 83.6981 89.65H85.5281ZM104.316 77.26V94H99.1856V91.72C98.6656 92.46 97.9556 93.06 97.0556 93.52C96.1756 93.96 95.1956 94.18 94.1156 94.18C92.8356 94.18 91.7056 93.9 90.7256 93.34C89.7456 92.76 88.9856 91.93 88.4456 90.85C87.9056 89.77 87.6356 88.5 87.6356 87.04V77.26H92.7356V86.35C92.7356 87.47 93.0256 88.34 93.6056 88.96C94.1856 89.58 94.9656 89.89 95.9456 89.89C96.9456 89.89 97.7356 89.58 98.3156 88.96C98.8956 88.34 99.1856 87.47 99.1856 86.35V77.26H104.316ZM106.38 85.6C106.38 83.88 106.7 82.37 107.34 81.07C108 79.77 108.89 78.77 110.01 78.07C111.13 77.37 112.38 77.02 113.76 77.02C114.86 77.02 115.86 77.25 116.76 77.71C117.68 78.17 118.4 78.79 118.92 79.57V71.8H124.05V94H118.92V91.6C118.44 92.4 117.75 93.04 116.85 93.52C115.97 94 114.94 94.24 113.76 94.24C112.38 94.24 111.13 93.89 110.01 93.19C108.89 92.47 108 91.46 107.34 90.16C106.7 88.84 106.38 87.32 106.38 85.6ZM118.92 85.63C118.92 84.35 118.56 83.34 117.84 82.6C117.14 81.86 116.28 81.49 115.26 81.49C114.24 81.49 113.37 81.86 112.65 82.6C111.95 83.32 111.6 84.32 111.6 85.6C111.6 86.88 111.95 87.9 112.65 88.66C113.37 89.4 114.24 89.77 115.26 89.77C116.28 89.77 117.14 89.4 117.84 88.66C118.56 87.92 118.92 86.91 118.92 85.63ZM142.942 85.36C142.942 85.84 142.912 86.34 142.852 86.86H131.242C131.322 87.9 131.652 88.7 132.232 89.26C132.832 89.8 133.562 90.07 134.422 90.07C135.702 90.07 136.592 89.53 137.092 88.45H142.552C142.272 89.55 141.762 90.54 141.022 91.42C140.302 92.3 139.392 92.99 138.292 93.49C137.192 93.99 135.962 94.24 134.602 94.24C132.962 94.24 131.502 93.89 130.222 93.19C128.942 92.49 127.942 91.49 127.222 90.19C126.502 88.89 126.142 87.37 126.142 85.63C126.142 83.89 126.492 82.37 127.192 81.07C127.912 79.77 128.912 78.77 130.192 78.07C131.472 77.37 132.942 77.02 134.602 77.02C136.222 77.02 137.662 77.36 138.922 78.04C140.182 78.72 141.162 79.69 141.862 80.95C142.582 82.21 142.942 83.68 142.942 85.36ZM137.692 84.01C137.692 83.13 137.392 82.43 136.792 81.91C136.192 81.39 135.442 81.13 134.542 81.13C133.682 81.13 132.952 81.38 132.352 81.88C131.772 82.38 131.412 83.09 131.272 84.01H137.692ZM155.248 77.08C157.208 77.08 158.768 77.72 159.928 79C161.108 80.26 161.698 82 161.698 84.22V94H156.598V84.91C156.598 83.79 156.308 82.92 155.728 82.3C155.148 81.68 154.368 81.37 153.388 81.37C152.408 81.37 151.628 81.68 151.048 82.3C150.468 82.92 150.178 83.79 150.178 84.91V94H145.048V77.26H150.178V79.48C150.698 78.74 151.398 78.16 152.278 77.74C153.158 77.3 154.148 77.08 155.248 77.08ZM173.993 89.65V94H171.383C169.523 94 168.073 93.55 167.033 92.65C165.993 91.73 165.473 90.24 165.473 88.18V81.52H163.433V77.26H165.473V73.18H170.603V77.26H173.963V81.52H170.603V88.24C170.603 88.74 170.723 89.1 170.963 89.32C171.203 89.54 171.603 89.65 172.163 89.65H173.993ZM183.06 94.24C181.6 94.24 180.3 93.99 179.16 93.49C178.02 92.99 177.12 92.31 176.46 91.45C175.8 90.57 175.43 89.59 175.35 88.51H180.42C180.48 89.09 180.75 89.56 181.23 89.92C181.71 90.28 182.3 90.46 183 90.46C183.64 90.46 184.13 90.34 184.47 90.1C184.83 89.84 185.01 89.51 185.01 89.11C185.01 88.63 184.76 88.28 184.26 88.06C183.76 87.82 182.95 87.56 181.83 87.28C180.63 87 179.63 86.71 178.83 86.41C178.03 86.09 177.34 85.6 176.76 84.94C176.18 84.26 175.89 83.35 175.89 82.21C175.89 81.25 176.15 80.38 176.67 79.6C177.21 78.8 177.99 78.17 179.01 77.71C180.05 77.25 181.28 77.02 182.7 77.02C184.8 77.02 186.45 77.54 187.65 78.58C188.87 79.62 189.57 81 189.75 82.72H185.01C184.93 82.14 184.67 81.68 184.23 81.34C183.81 81 183.25 80.83 182.55 80.83C181.95 80.83 181.49 80.95 181.17 81.19C180.85 81.41 180.69 81.72 180.69 82.12C180.69 82.6 180.94 82.96 181.44 83.2C181.96 83.44 182.76 83.68 183.84 83.92C185.08 84.24 186.09 84.56 186.87 84.88C187.65 85.18 188.33 85.68 188.91 86.38C189.51 87.06 189.82 87.98 189.84 89.14C189.84 90.12 189.56 91 189 91.78C188.46 92.54 187.67 93.14 186.63 93.58C185.61 94.02 184.42 94.24 183.06 94.24Z" fill="#A21CAF"/>
<path d="M166 168.141V117.609C166 115.609 163.97 114 161.446 114H99.2143C89.1585 114 81 120.467 81 128.438V176.562C81 184.533 89.1585 191 99.2143 191H161.446C163.97 191 166 189.391 166 187.391V184.984C166 183.856 165.336 182.834 164.311 182.172C163.515 179.856 163.515 173.254 164.311 170.938C165.336 170.291 166 169.269 166 168.141ZM105.286 134.152C105.286 133.656 105.798 133.25 106.424 133.25H146.647C147.273 133.25 147.786 133.656 147.786 134.152V137.16C147.786 137.656 147.273 138.062 146.647 138.062H106.424C105.798 138.062 105.286 137.656 105.286 137.16V134.152ZM105.286 143.777C105.286 143.281 105.798 142.875 106.424 142.875H146.647C147.273 142.875 147.786 143.281 147.786 143.777V146.785C147.786 147.281 147.273 147.688 146.647 147.688H106.424C105.798 147.688 105.286 147.281 105.286 146.785V143.777ZM153.364 181.375H99.2143C95.856 181.375 93.1429 179.224 93.1429 176.562C93.1429 173.916 95.875 171.75 99.2143 171.75H153.364C153.003 174.322 153.003 178.803 153.364 181.375Z" fill="#701A75"/>
</g>
<defs>
<clipPath id="clip0">
<rect width="280" height="228" fill="white"/>
</clipPath>
</defs>
</svg>
